<svg xmlns="http://www.w3.org/2000/svg" viewBox="0 0 32 32" shape-rendering="crispEdges">
  <title>Calice di vino pixel-art — La Botte Fatale</title>

  <!-- Rim and glass -->
  <path fill="#10070a" d="M4 3h24v4h-2v8h-2v4h-2v3h-4v5h6v3H8v-3h6v-5h-4v-3H8v-4H6V7H4z"/>
  <path fill="#f3dfb2" d="M7 7h18v7h-2v4h-3v2h-8v-2H9v-4H7z"/>

  <!-- Wine -->
  <path fill="#941d3d" d="M8 10h16v5h-2v3h-3v2h-6v-2h-3v-3H8z"/>
  <path fill="#65152c" d="M10 15h12v3h-3v2h-6v-2h-3z"/>

  <!-- Highlights and stem -->
  <path fill="#f3dfb2" d="M9 7h3v3H9zm2 4h2v2h-2z"/>
  <path fill="#d3a24d" d="M15 22h2v5h-2zm-4 5h10v2H11z"/>
</svg>
